<?xml version="1.0" encoding="utf-8"?>
<!-- Generator: Adobe Illustrator 24.1.2, SVG Export Plug-In . SVG Version: 6.00 Build 0)  -->
<svg version="1.1" id="Camada_1" xmlns="http://www.w3.org/2000/svg" xmlns:xlink="http://www.w3.org/1999/xlink" x="0px" y="0px"
	 viewBox="0 0 479 479" style="enable-background:new 0 0 479 479;" xml:space="preserve">
<style type="text/css">
	.st0{fill:#FFC500;}
	.st1{fill:#FF9F1E;}
	.st2{fill:#FFE059;}
	.st3{fill:#00305F;}
	.st4{fill:#E85D00;}
	.st5{fill:#FF4F4F;}
</style>
<g id="Layer_3">
	<circle class="st0" cx="239.5" cy="239.5" r="239.5"/>
	<path class="st1" d="M256.5,445.1C124.2,445.1,17,337.8,17,205.6c0-30.7,5.8-61.2,17.3-89.7C11.8,153.2-0.1,195.9,0,239.5
		C0,371.7,107.2,479,239.5,479c100.6,0,186.7-62,222.1-149.8C419.7,398.6,343.5,445.1,256.5,445.1z"/>
	<path class="st2" d="M239.5,0C188.2-0.1,138.2,16.4,97,47c56.5-21.8,118.7-24.4,176.9-7.4c-0.5,0.6-0.9,1.3-1.3,2
		c-7.1,13.2,7.4,34.8,32.3,48.1s50.9,13.5,58,0.3c0.7-1.3,1.2-2.7,1.4-4.1c64.5,50,106.1,128,106.5,215.8
		c5.5-20.3,8.2-41.3,8.2-62.3C479,107.2,371.7,0,239.5,0z"/>
	<ellipse transform="matrix(0.4983 -0.867 0.867 0.4983 75.1734 247.1923)" class="st2" cx="251.2" cy="58.6" rx="12.1" ry="16.5"/>
	<path class="st3" d="M243.2,398.3h-7.3c-45.6,0-82.5-37-82.5-82.5l0,0c56.9-11.4,115.5-11.4,172.4,0l0,0
		C325.7,361.3,288.7,398.3,243.2,398.3z"/>
	<path class="st4" d="M151.1,117.9l11.7,23.6c2,4.1,5.9,6.9,10.4,7.6l26.1,3.8c11.4,1.6,15.9,15.6,7.7,23.6l-18.8,18.4
		c-3.3,3.2-4.8,7.8-4,12.3l4.4,26c1.9,11.3-10,19.9-20.1,14.6l-23.3-12.3c-4-2.1-8.8-2.1-12.9,0L109,247.7
		c-10.2,5.3-22-3.3-20.1-14.6l4.4-26c0.8-4.5-0.7-9.1-4-12.3l-18.9-18.4c-8.2-8-3.7-22,7.7-23.6l26.1-3.8c4.5-0.7,8.4-3.5,10.4-7.6
		l11.7-23.6C131.4,107.6,146,107.6,151.1,117.9z"/>
	<path class="st4" d="M327.9,117.9l-11.7,23.6c-2,4.1-5.9,6.9-10.4,7.6l-26.1,3.8c-11.4,1.6-15.9,15.6-7.7,23.6l18.8,18.4
		c3.3,3.2,4.8,7.8,4,12.3l-4.4,26c-1.9,11.3,10,19.9,20.1,14.6l23.3-12.3c4-2.1,8.8-2.1,12.9,0l23.3,12.3c10.2,5.3,22-3.3,20.1-14.6
		l-4.4-26c-0.8-4.5,0.7-9.1,4-12.3l18.9-18.4c8.2-8,3.7-22-7.7-23.6l-26.1-3.8c-4.5-0.7-8.4-3.5-10.4-7.6l-11.7-23.6
		C347.6,107.6,333,107.6,327.9,117.9z"/>
	<path class="st5" d="M252.3,352.7c-23.4,0-43.7,16.1-49,38.9c10.3,4.4,21.4,6.7,32.5,6.7h7.3c19.5,0,38.3-6.9,53.2-19.5
		C287.5,362.7,270.6,352.7,252.3,352.7z"/>
</g>
</svg>
