<?xml version="1.0" encoding="utf-8"?>
<!-- Generator: Adobe Illustrator 24.1.2, SVG Export Plug-In . SVG Version: 6.00 Build 0)  -->
<svg version="1.1" id="Camada_1" xmlns="http://www.w3.org/2000/svg" xmlns:xlink="http://www.w3.org/1999/xlink" x="0px" y="0px"
	 viewBox="0 0 479 479" style="enable-background:new 0 0 479 479;" xml:space="preserve">
<style type="text/css">
	.st0{fill:#FFC500;}
	.st1{fill:#FF9F1E;}
	.st2{fill:#FFE059;}
	.st3{fill:#208C59;}
	.st4{fill:#00305F;}
</style>
<g id="Layer_1">
</g>
<g id="Layer_3">
	<circle class="st0" cx="239.5" cy="239.5" r="239.5"/>
	<path class="st1" d="M256.5,445.1C124.2,445.1,17,337.8,17,205.6c0-30.7,5.8-61.2,17.3-89.7C11.8,153.2-0.1,195.9,0,239.5
		C0,371.7,107.2,479,239.5,479c100.6,0,186.7-62,222.1-149.8C419.7,398.6,343.5,445.1,256.5,445.1z"/>
	<path class="st2" d="M239.5,0C188.2-0.1,138.2,16.4,97,47c56.5-21.8,118.7-24.4,176.9-7.4c-0.5,0.6-0.9,1.3-1.3,2
		c-7.1,13.2,7.4,34.8,32.3,48.1s50.9,13.5,58,0.3c0.7-1.3,1.2-2.7,1.4-4.1c64.5,50,106.1,128,106.5,215.8
		c5.5-20.3,8.2-41.3,8.2-62.3C479,107.2,371.7,0,239.5,0z"/>
	
		<ellipse transform="matrix(0.1908 -0.9816 0.9816 0.1908 182.926 445.7094)" class="st2" cx="361.8" cy="111.9" rx="12" ry="20.6"/>
	<ellipse transform="matrix(0.5 -0.866 0.866 0.5 56.8373 338.385)" class="st2" cx="321.5" cy="120" rx="6.7" ry="9.8"/>
	<path class="st3" d="M159.2,267.9c-14.1-0.1-26.4-9.4-30.3-22.9c-1.7-6.2,1.9-12.7,8.1-14.4s12.7,1.9,14.4,8.1
		c1.2,4.3,5.6,6.8,9.9,5.6c4.3-1.2,6.8-5.6,5.6-9.9c-1-3.5-4.1-5.9-7.7-5.9c-6.5,0-11.7-5.2-11.7-11.7s5.2-11.7,11.7-11.7
		c17.4,0,31.4,14.1,31.4,31.5C190.6,253.9,176.5,267.9,159.2,267.9L159.2,267.9z"/>
	<path class="st3" d="M159.9,228.4c-17.4,0-31.5-14.1-31.5-31.5c0-17.4,14.1-31.5,31.5-31.5c14.1,0,26.5,9.4,30.3,22.9
		c1.7,6.2-1.9,12.7-8.1,14.4s-12.7-1.9-14.4-8.1l0,0c-1.2-4.3-5.6-6.8-9.9-5.6c-4.3,1.2-6.8,5.6-5.6,9.9c1,3.5,4.1,5.9,7.7,5.9
		c6.5,0,11.7,5.2,11.7,11.7C171.6,223.2,166.4,228.4,159.9,228.4L159.9,228.4z"/>
	<path class="st3" d="M159.9,189c-6.5,0-11.7-5.2-11.7-11.7v-17.1c0-6.5,5.2-11.7,11.7-11.7s11.7,5.2,11.7,11.7v17.1
		C171.6,183.7,166.4,189,159.9,189z"/>
	<path class="st3" d="M159.9,285c-6.5,0-11.7-5.2-11.7-11.7l0,0v-17.1c0-6.5,5.2-11.7,11.7-11.7s11.7,5.2,11.7,11.7v17.1
		C171.6,279.8,166.4,285,159.9,285L159.9,285z"/>
	<path class="st3" d="M319.1,267.9c-14.1,0-26.4-9.4-30.3-22.9c-1.7-6.2,1.9-12.7,8.1-14.4c6.2-1.7,12.7,1.9,14.4,8.1l0,0
		c1.2,4.3,5.6,6.8,9.9,5.6c4.3-1.2,6.8-5.6,5.6-9.9c-1-3.5-4.1-5.9-7.7-5.9c-6.5,0-11.7-5.2-11.7-11.7s5.2-11.7,11.7-11.7
		c17.4,0,31.4,14.1,31.4,31.5C350.5,253.9,336.4,267.9,319.1,267.9L319.1,267.9z"/>
	<path class="st3" d="M319.8,228.4c-17.4,0-31.5-14.1-31.5-31.5s14.1-31.5,31.5-31.5c14.1,0,26.5,9.4,30.3,22.9
		c1.7,6.2-1.9,12.7-8.1,14.4c-6.2,1.7-12.7-1.9-14.4-8.1l0,0c-1.2-4.3-5.6-6.8-9.9-5.6c-4.3,1.2-6.8,5.6-5.6,9.9
		c1,3.5,4.1,5.9,7.7,5.9c6.5,0,11.7,5.2,11.7,11.7C331.5,223.2,326.3,228.4,319.8,228.4L319.8,228.4z"/>
	<path class="st3" d="M319.8,189c-6.5,0-11.7-5.2-11.7-11.7v-17.1c0-6.5,5.2-11.7,11.7-11.7c6.5,0,11.7,5.2,11.7,11.7v17.1
		C331.5,183.7,326.3,189,319.8,189z"/>
	<path class="st3" d="M319.8,285c-6.5,0-11.7-5.2-11.7-11.7l0,0v-17.1c0-6.5,5.2-11.7,11.7-11.7s11.7,5.2,11.7,11.7v17.1
		C331.5,279.8,326.3,285,319.8,285z"/>
	<path class="st4" d="M153.3,326h172.4l0,0l0,0c0,45.6-37,82.5-82.5,82.5l0,0h-7.3C190.2,408.6,153.3,371.6,153.3,326L153.3,326
		L153.3,326L153.3,326z"/>
</g>
</svg>
