<?xml version="1.0" encoding="utf-8"?>
<!-- Generator: Adobe Illustrator 25.2.1, SVG Export Plug-In . SVG Version: 6.00 Build 0)  -->
<svg version="1.1" id="Camada_1" xmlns="http://www.w3.org/2000/svg" xmlns:xlink="http://www.w3.org/1999/xlink" x="0px" y="0px"
	 viewBox="0 0 78.7 81.4" style="enable-background:new 0 0 78.7 81.4;" xml:space="preserve">
<style type="text/css">
	.st0{fill:#009EE2;}
	.st1{fill:#3B7EC0;}
	.st2{fill:#312782;}
</style>
<g>
	<g>
		<circle class="st0" cx="53.3" cy="31.3" r="6.5"/>
		<path class="st0" d="M55.1,1.1c-4.3,0-7.9,3.5-7.9,7.9c0,0.7,0.1,1.3,0.3,1.9c-2.5,1.6-4.7,3-6.5,4.1c-0.8-0.5-1.6-0.7-2.6-0.7
			c-2.8,0-5.1,2.3-5.1,5.1c0,2.8,2.3,5.1,5.1,5.1s5.1-2.3,5.1-5.1c0,0,0-0.1,0-0.1c1.6-1,3.7-2.3,6.7-4.2c1.3,1.1,3,1.7,4.9,1.7
			c4.3,0,7.9-3.5,7.9-7.9S59.5,1.1,55.1,1.1z"/>
		<path class="st0" d="M67.2,19c-1.7,0-3.1,1.4-3.1,3.1c0,1.7,1.4,3.1,3.1,3.1c1.7,0,3.1-1.4,3.1-3.1C70.3,20.4,68.9,19,67.2,19z"/>
		<path class="st0" d="M38.6,6.2c1.7,0,3.1-1.4,3.1-3.1c0-1.7-1.4-3.1-3.1-3.1c-1.7,0-3.1,1.4-3.1,3.1C35.5,4.8,36.9,6.2,38.6,6.2z"
			/>
	</g>
	<g>
		<g>
			<circle class="st1" cx="55.6" cy="69.2" r="7.7"/>
			<ellipse transform="matrix(0.9871 -0.1602 0.1602 0.9871 -5.3314 11.8744)" class="st1" cx="71" cy="39" rx="7.7" ry="7.7"/>
			<ellipse transform="matrix(0.9732 -0.2298 0.2298 0.9732 -1.5667 5.2611)" class="st1" cx="21.8" cy="9.4" rx="7.7" ry="7.7"/>
			<path class="st1" d="M70.9,54.9c-0.9,0-1.7,0.3-2.4,0.9c-4.8-2.9-8-4.8-10.3-6.1c0-0.3,0.1-0.5,0.1-0.8c0-2.8-2.3-5.1-5.1-5.1
				c-2.8,0-5.1,2.3-5.1,5.1c0,2.8,2.3,5.1,5.1,5.1c1.4,0,2.7-0.6,3.6-1.6c2.8,1.6,6.6,3.9,10.2,6c0,0.1,0,0.2,0,0.3
				c0,2.1,1.7,3.8,3.8,3.8c2.1,0,3.8-1.7,3.8-3.8S73,54.9,70.9,54.9z"/>
			<path class="st1" d="M33.7,28.9c-2.5,0-4.7,1-6.2,2.7c-9.2-6-14.5-9.3-17.7-11.2c0.1-0.3,0.1-0.6,0.1-0.9c0-2-1.6-3.6-3.6-3.6
				c-2,0-3.6,1.6-3.6,3.6c0,2,1.6,3.6,3.6,3.6c0.6,0,1.1-0.1,1.6-0.4c4.1,2.5,11.3,7.1,17.9,11.4c-0.4,1-0.7,2.2-0.7,3.4
				c0,4.7,3.8,8.6,8.6,8.6c4.7,0,8.6-3.8,8.6-8.6S38.4,28.9,33.7,28.9z"/>
		</g>
		<g>
			<path class="st2" d="M40.6,74.5c-0.6,0-1.2,0.2-1.7,0.5l-9.5-4.5c0.1-0.4,0.1-0.9,0.1-1.3c0-4.2-3.4-7.7-7.7-7.7
				c-4.2,0-7.7,3.4-7.7,7.7c0,4.2,3.4,7.7,7.7,7.7c2.4,0,4.5-1.1,5.9-2.7l9.5,4.5c0.3,1.6,1.7,2.8,3.4,2.8c1.9,0,3.4-1.5,3.4-3.4
				C44,76,42.5,74.5,40.6,74.5z"/>
			<circle class="st2" cx="38.6" cy="58.7" r="4.9"/>
			<circle class="st2" cx="7.5" cy="40" r="7.5"/>
			<path class="st2" d="M18.9,54.8c0.8,0.6,1.8,1.1,2.9,1.1c2.6,0,4.7-2.1,4.7-4.7c0-2.6-2.1-4.7-4.7-4.7c-2.6,0-4.7,2.1-4.7,4.7
				c0,0,0,0.1,0,0.1L5,57.2c-0.5-0.3-1-0.4-1.6-0.4c-1.9,0-3.4,1.5-3.4,3.4c0,1.9,1.5,3.4,3.4,3.4c1.7,0,3.1-1.2,3.4-2.9L18.9,54.8z
				"/>
		</g>
	</g>
</g>
</svg>
