<?xml version="1.0" encoding="utf-8"?>
<!-- Generator: Adobe Illustrator 25.2.1, SVG Export Plug-In . SVG Version: 6.00 Build 0)  -->
<svg version="1.1" id="Camada_1" xmlns="http://www.w3.org/2000/svg" xmlns:xlink="http://www.w3.org/1999/xlink" x="0px" y="0px"
	 viewBox="0 0 251.8 81.4" style="enable-background:new 0 0 251.8 81.4;" xml:space="preserve">
<style type="text/css">
	.st0{fill:#009EE2;}
	.st1{fill:#3B7EC0;}
	.st2{fill:#FFFFFF;}
</style>
<g>
	<g>
		<g>
			<circle class="st0" cx="53.3" cy="31.3" r="6.5"/>
			<path class="st0" d="M55.1,1.1c-4.3,0-7.9,3.5-7.9,7.9c0,0.7,0.1,1.3,0.3,1.9c-2.5,1.6-4.7,3-6.5,4.1c-0.8-0.5-1.6-0.7-2.6-0.7
				c-2.8,0-5.1,2.3-5.1,5.1c0,2.8,2.3,5.1,5.1,5.1s5.1-2.3,5.1-5.1c0,0,0-0.1,0-0.1c1.6-1,3.7-2.3,6.7-4.2c1.3,1.1,3,1.7,4.9,1.7
				c4.3,0,7.9-3.5,7.9-7.9S59.5,1.1,55.1,1.1z"/>
			<path class="st0" d="M67.2,19c-1.7,0-3.1,1.4-3.1,3.1c0,1.7,1.4,3.1,3.1,3.1c1.7,0,3.1-1.4,3.1-3.1C70.3,20.4,68.9,19,67.2,19z"
				/>
			<path class="st0" d="M38.6,6.2c1.7,0,3.1-1.4,3.1-3.1c0-1.7-1.4-3.1-3.1-3.1c-1.7,0-3.1,1.4-3.1,3.1C35.5,4.8,36.9,6.2,38.6,6.2z
				"/>
		</g>
		<g>
			<g>
				<circle class="st1" cx="55.6" cy="69.2" r="7.7"/>
				<ellipse transform="matrix(0.9871 -0.1602 0.1602 0.9871 -5.3314 11.8744)" class="st1" cx="71" cy="39" rx="7.7" ry="7.7"/>
				<ellipse transform="matrix(0.9732 -0.2298 0.2298 0.9732 -1.5667 5.2611)" class="st1" cx="21.8" cy="9.4" rx="7.7" ry="7.7"/>
				<path class="st1" d="M70.9,54.9c-0.9,0-1.7,0.3-2.4,0.9c-4.8-2.9-8-4.8-10.3-6.1c0-0.3,0.1-0.5,0.1-0.8c0-2.8-2.3-5.1-5.1-5.1
					c-2.8,0-5.1,2.3-5.1,5.1c0,2.8,2.3,5.1,5.1,5.1c1.4,0,2.7-0.6,3.6-1.6c2.8,1.6,6.6,3.9,10.2,6c0,0.1,0,0.2,0,0.3
					c0,2.1,1.7,3.8,3.8,3.8c2.1,0,3.8-1.7,3.8-3.8S73,54.9,70.9,54.9z"/>
				<path class="st1" d="M33.7,28.9c-2.5,0-4.7,1-6.2,2.7c-9.2-6-14.5-9.3-17.7-11.2c0.1-0.3,0.1-0.6,0.1-0.9c0-2-1.6-3.6-3.6-3.6
					c-2,0-3.6,1.6-3.6,3.6c0,2,1.6,3.6,3.6,3.6c0.6,0,1.1-0.1,1.6-0.4c4.1,2.5,11.3,7.1,17.9,11.4c-0.4,1-0.7,2.2-0.7,3.4
					c0,4.7,3.8,8.6,8.6,8.6c4.7,0,8.6-3.8,8.6-8.6S38.4,28.9,33.7,28.9z"/>
			</g>
			<g>
				<path class="st2" d="M40.6,74.5c-0.6,0-1.2,0.2-1.7,0.5l-9.5-4.5c0.1-0.4,0.1-0.9,0.1-1.3c0-4.2-3.4-7.7-7.7-7.7
					c-4.2,0-7.7,3.4-7.7,7.7c0,4.2,3.4,7.7,7.7,7.7c2.4,0,4.5-1.1,5.9-2.7l9.5,4.5c0.3,1.6,1.7,2.8,3.4,2.8c1.9,0,3.4-1.5,3.4-3.4
					C44,76,42.5,74.5,40.6,74.5z"/>
				<circle class="st2" cx="38.6" cy="58.7" r="4.9"/>
				<circle class="st2" cx="7.5" cy="40" r="7.5"/>
				<path class="st2" d="M18.9,54.8c0.8,0.6,1.8,1.1,2.9,1.1c2.6,0,4.7-2.1,4.7-4.7c0-2.6-2.1-4.7-4.7-4.7c-2.6,0-4.7,2.1-4.7,4.7
					c0,0,0,0.1,0,0.1L5,57.2c-0.5-0.3-1-0.4-1.6-0.4c-1.9,0-3.4,1.5-3.4,3.4c0,1.9,1.5,3.4,3.4,3.4c1.7,0,3.1-1.2,3.4-2.9L18.9,54.8
					z"/>
			</g>
		</g>
	</g>
	<g>
		<g>
			<path class="st0" d="M131.6,62.2H129v-1.3h6.6v1.3H133V69h-1.4V62.2z"/>
			<path class="st0" d="M140.7,60.9h6.1v1.3h-4.6v2.1h4.1v1.3h-4.1v2.2h4.7V69h-6.1V60.9z"/>
			<path class="st0" d="M152,60.9h1.4v6.9h4.3V69H152V60.9z"/>
			<path class="st0" d="M162.7,60.9h6.1v1.3h-4.6v2.1h4.1v1.3h-4.1v2.2h4.7V69h-6.1V60.9z"/>
			<path class="st0" d="M177.9,69.2c-0.6,0-1.2-0.1-1.7-0.3c-0.5-0.2-0.9-0.5-1.3-0.9c-0.4-0.4-0.7-0.8-0.9-1.3
				c-0.2-0.5-0.3-1.1-0.3-1.6v0c0-0.6,0.1-1.1,0.3-1.6c0.2-0.5,0.5-1,0.9-1.3c0.4-0.4,0.8-0.7,1.3-0.9c0.5-0.2,1.1-0.3,1.7-0.3
				c0.4,0,0.7,0,1,0.1c0.3,0.1,0.6,0.2,0.8,0.3c0.3,0.1,0.5,0.2,0.7,0.4c0.2,0.2,0.4,0.3,0.6,0.5l-0.9,1.1c-0.3-0.3-0.7-0.5-1-0.7
				c-0.4-0.2-0.8-0.3-1.3-0.3c-0.4,0-0.7,0.1-1.1,0.2c-0.3,0.2-0.6,0.4-0.9,0.6c-0.2,0.3-0.4,0.6-0.6,0.9c-0.1,0.3-0.2,0.7-0.2,1.1
				v0c0,0.4,0.1,0.8,0.2,1.1c0.1,0.4,0.3,0.7,0.6,0.9c0.2,0.3,0.5,0.5,0.9,0.6c0.3,0.2,0.7,0.2,1.1,0.2c0.5,0,0.9-0.1,1.3-0.3
				c0.4-0.2,0.7-0.4,1.1-0.8l0.9,0.9c-0.2,0.2-0.4,0.4-0.7,0.6c-0.2,0.2-0.5,0.3-0.7,0.5c-0.3,0.1-0.6,0.2-0.9,0.3
				C178.6,69.2,178.3,69.2,177.9,69.2z"/>
			<path class="st0" d="M190.1,69.2c-0.6,0-1.2-0.1-1.7-0.3s-1-0.5-1.3-0.9c-0.4-0.4-0.7-0.8-0.9-1.3c-0.2-0.5-0.3-1.1-0.3-1.6v0
				c0-0.6,0.1-1.1,0.3-1.6c0.2-0.5,0.5-1,0.9-1.3c0.4-0.4,0.8-0.7,1.4-0.9c0.5-0.2,1.1-0.3,1.7-0.3c0.6,0,1.2,0.1,1.7,0.3
				c0.5,0.2,1,0.5,1.3,0.9c0.4,0.4,0.7,0.8,0.9,1.3c0.2,0.5,0.3,1.1,0.3,1.6v0c0,0.6-0.1,1.1-0.3,1.6c-0.2,0.5-0.5,1-0.9,1.3
				c-0.4,0.4-0.8,0.7-1.4,0.9C191.3,69.1,190.7,69.2,190.1,69.2z M190.1,67.9c0.4,0,0.8-0.1,1.1-0.2c0.3-0.2,0.6-0.4,0.9-0.6
				c0.2-0.3,0.4-0.6,0.6-0.9c0.1-0.3,0.2-0.7,0.2-1.1v0c0-0.4-0.1-0.8-0.2-1.1c-0.1-0.4-0.3-0.7-0.6-0.9c-0.2-0.3-0.5-0.5-0.9-0.6
				s-0.7-0.2-1.1-0.2c-0.4,0-0.8,0.1-1.1,0.2s-0.6,0.4-0.9,0.6c-0.2,0.3-0.4,0.6-0.6,0.9c-0.1,0.3-0.2,0.7-0.2,1.1v0
				c0,0.4,0.1,0.8,0.2,1.1s0.3,0.7,0.6,0.9c0.2,0.3,0.5,0.5,0.9,0.6C189.4,67.8,189.7,67.9,190.1,67.9z"/>
			<path class="st0" d="M199.6,60.9h1.5l2.5,3.9l2.5-3.9h1.5V69h-1.4v-5.9l-2.6,3.9h0l-2.6-3.8V69h-1.4V60.9z"/>
		</g>
		<g>
			<path class="st2" d="M106.9,48.2c-2.9,0-5.8-0.3-8.6-1c-2.8-0.7-5.1-1.5-6.8-2.6l2-4.7c0.4-0.9,1.1-1.6,2-2
				c0.9-0.4,1.8-0.4,2.7-0.1c2.9,1.1,5.9,1.7,9,1.7c3.6,0,5.5-0.8,5.5-2.4c0-0.7-0.4-1.2-1.1-1.5c-0.7-0.4-1.7-0.6-2.9-0.8
				c-1.2-0.2-2.6-0.3-4-0.5c-1.5-0.2-2.9-0.5-4.4-0.9c-1.4-0.4-2.8-1-4-1.7C95,31,94,30,93.3,28.6c-0.7-1.3-1.1-3-1.1-4.9
				c0-3.4,1.5-6.1,4.5-8.3c3-2.2,7.1-3.3,12.4-3.3c5.6,0,10.2,1,13.7,3l-2,4.7c-0.4,0.9-1.1,1.6-2.1,2c-1,0.4-1.9,0.4-3,0
				c-2.1-0.7-4.2-1-6.5-1c-3.7,0-5.5,0.8-5.5,2.4c0,0.8,0.5,1.3,1.5,1.8c1,0.4,2.3,0.7,3.8,0.8c1.5,0.1,3.1,0.4,4.9,0.8
				c1.8,0.4,3.4,0.9,4.9,1.5c1.5,0.6,2.7,1.6,3.8,3.1c1,1.5,1.5,3.3,1.5,5.5c0,3.3-1.5,6.1-4.5,8.2
				C116.5,47.1,112.3,48.2,106.9,48.2z"/>
			<path class="st2" d="M165.7,12.8v31c0,1-0.4,1.9-1.1,2.7c-0.8,0.8-1.7,1.1-2.7,1.1h-7.8l4.1-8.9c-2.3,3.4-4.7,5.8-7.2,7.3
				c-2.5,1.5-4.9,2.2-7.2,2.2c-4.5,0-8.1-1.3-10.8-4c-2.7-2.7-4-6.6-4-11.9V12.8h9c0.9,0,1.7,0.3,2.3,0.9c0.6,0.6,0.9,1.4,0.9,2.3
				v14.2c0,5,1.9,7.5,5.8,7.5c2,0,3.5-0.7,4.7-2c1.2-1.3,1.8-3.4,1.8-6.2V16.9c0-1.1,0.4-2.1,1.2-2.9c0.8-0.8,1.8-1.2,2.9-1.2H165.7
				z"/>
			<path class="st2" d="M193.3,12.2c2.8,0,5.2,0.5,7.3,1.6c2.1,1.1,3.8,2.8,5.1,5.1c1.3,2.4,2,5.3,2,8.8v19.9h-12.2v-18
				c0-4.7-1.9-7.1-5.7-7.1c-2.1,0-3.7,0.7-5,2c-1.3,1.4-1.9,3.4-1.9,6.2v12c0,1.3-0.5,2.4-1.4,3.4c-0.9,1-2.1,1.4-3.4,1.4h-7.3V17.1
				c0-1.2,0.4-2.2,1.3-3c0.8-0.8,1.8-1.2,3-1.2h7.3l-4.7,7.8c2.3-2.9,4.8-5.1,7.7-6.4C188.1,12.9,190.8,12.2,193.3,12.2z"/>
			<path class="st2" d="M232.2,48.2c-5.7,0-10.4-1.7-14.1-5.1c-3.7-3.4-5.5-7.7-5.5-12.9c0-5.2,1.8-9.5,5.5-12.9
				c3.7-3.4,8.4-5.1,14.1-5.1c5.7,0,10.4,1.7,14.1,5.1c3.7,3.4,5.5,7.7,5.5,12.9c0,5.3-1.8,9.6-5.5,13
				C242.6,46.5,238,48.2,232.2,48.2z M232.2,38.5c2.1,0,3.9-0.7,5.2-2.2c1.4-1.5,2-3.5,2-6.1c0-2.6-0.7-4.6-2-6
				c-1.4-1.5-3.1-2.2-5.2-2.2s-3.9,0.7-5.3,2.2c-1.4,1.5-2.1,3.5-2.1,6s0.7,4.6,2.1,6.1C228.4,37.7,230.1,38.5,232.2,38.5z"/>
		</g>
	</g>
</g>
</svg>
